<svg xmlns="http://www.w3.org/2000/svg" width="135" height="26" viewBox="0 0 135 26">
    <defs>
        <clipPath id="prefix__clip-path">
            <path id="prefix__Rectangle_1" d="M0 0H135V26H0z" data-name="Rectangle 1" transform="translate(30 19)" style="stroke:#707070;fill:#7d40e7"/>
        </clipPath>
        <style>
            .prefix__cls-4{fill:#7d40e7}
        </style>
    </defs>
    <g id="prefix__Mask_Group_24" data-name="Mask Group 24" transform="translate(-30 -19)">
        <g id="prefix__Page-1" transform="translate(30.828 20.558)">
            <g id="prefix__fastfeet" transform="translate(-33.133 -36.275)">
                <g id="prefix__Group" transform="translate(33.133 36.275)">
                    <text id="prefix__FASTFEET-2" data-name="FASTFEET" transform="translate(39.328 17.913)" style="font-size:17px;font-family:ArialMT,Arial;letter-spacing:.033em;fill:#7d40e7">
                        <tspan x="0" y="0">FASTFEET</tspan>
                    </text>
                    <g id="prefix__noun_fast_29949">
                        <path id="prefix__Path" d="M32.952 15.415H10.581a.666.666 0 0 0 0 1.332h22.371a.666.666 0 0 0 0-1.332z" class="prefix__cls-4"/>
                        <path id="prefix__Path-2" d="M34.639 11.623H13.954a.641.641 0 0 0 0 1.281h20.685a.641.641 0 0 0 0-1.281z" class="prefix__cls-4" data-name="Path"/>
                        <path id="prefix__Path-3" d="M30.555 7.869H8.184a.666.666 0 0 0 0 1.331h22.371a.666.666 0 0 0 0-1.331z" class="prefix__cls-4" data-name="Path"/>
                        <path id="prefix__Path-4" d="M9.781 22.739a5.866 5.866 0 0 1-5.859-5.859 3.062 3.062 0 0 1 .043-.5 5.86 5.86 0 0 1 1.91-11.4c.186 0 .373.008.558.026A5.733 5.733 0 0 1 12.178.145a5.877 5.877 0 0 1 5.74 4.679.755.755 0 1 1-1.48.3 4.36 4.36 0 0 0-4.261-3.471 4.243 4.243 0 0 0-4.3 4.272.755.755 0 0 1-1.035.7l-.149-.059a4.351 4.351 0 0 0-1.663 8.545.754.754 0 0 1 .549 1.037l-.064.15-.026.133a2.345 2.345 0 0 0-.059.448 4.351 4.351 0 0 0 8.375 1.653.755.755 0 1 1 1.4.574 5.837 5.837 0 0 1-5.424 3.633z" class="prefix__cls-4" data-name="Path"/>
                    </g>
                </g>
            </g>
        </g>
    </g>
</svg>
